<?xml version="1.0" encoding="UTF-8" standalone="no"?>
<!-- Created with Inkscape (http://www.inkscape.org/) -->

<svg
   width="78mm"
   height="80mm"
   viewBox="0 0 78 80.000001"
   version="1.1"
   id="svg1"
   xmlns="http://www.w3.org/2000/svg"
   xmlns:svg="http://www.w3.org/2000/svg">
  <defs
     id="defs1" />
  <g
     id="layer1"
     transform="translate(-68.113672,-94.598363)">
    <path
       style="fill:#000000;stroke-width:0.132292;stroke-linecap:round"
       id="path1-8-5"
       d="m 94.840482,132.02801 3.348211,5.79928 -3.34821,5.79927 -6.696422,0 -3.348211,-5.79927 3.34821,-5.79928 z"
       transform="matrix(0.86694362,0.50053013,-0.50053013,0.86694362,96.718982,-30.632654)" />
    <path
       id="rect1"
       style="fill:#000000;stroke-width:0.318732;stroke-linecap:round"
       d="m 133.24418,28.311455 -19.89382,19.860596 0.0506,15.113421 -25.061623,-2.07e-4 v 19.926949 l 15.158493,-4.92e-4 -24.978215,25.020338 19.893814,0.0669 15.088201,-15.11395 0.084,25.00113 19.89381,-19.86008 -0.0506,-15.113937 25.04255,-1.28e-4 V 63.285016 l -15.11977,-1.68e-4 24.95856,-25.000741 -19.89382,-0.06635 -15.0882,15.113434 z m -9.83879,36.561444 8.37155,0.02831 v 8.385017 l -8.37155,8.357223 -8.37155,-0.02779 v -8.385534 z"
       transform="matrix(0.86747289,0.49748445,0,1,0,0)" />
  </g>
</svg>
